<svg xmlns="http://www.w3.org/2000/svg" xmlns:xlink="http://www.w3.org/1999/xlink" version="1.1" preserveAspectRatio="xMidYMid meet" viewBox="0 0 640 640" width="640" height="640"><defs><path d="M642.78 604.37C665.11 604.37 683.22 622.38 683.22 644.6C683.22 666.82 665.11 684.83 642.78 684.83C620.44 684.83 602.33 666.82 568.28 644.6C602.33 622.38 620.44 604.37 642.78 604.37Z" id="d9QpYiK81"/><path d="M598.41 564.14C620.74 564.14 638.85 582.15 638.85 604.37C638.85 626.59 620.74 644.6 598.41 644.6C576.07 644.6 557.97 626.59 523.91 604.37C557.97 582.15 576.07 564.14 598.41 564.14Z" id="c5WeU8K2r"/><path d="M642.78 523.91C665.11 523.91 683.22 541.92 683.22 564.14C683.22 586.36 665.11 604.37 642.78 604.37C620.44 604.37 602.33 586.36 568.28 564.14C602.33 541.92 620.44 523.91 642.78 523.91Z" id="acVCkszyx"/><path d="M598.41 483.68C620.74 483.68 638.85 501.69 638.85 523.91C638.85 546.13 620.74 564.14 598.41 564.14C576.07 564.14 557.97 546.13 523.91 523.91C557.97 501.69 576.07 483.68 598.41 483.68Z" id="bJbDUSw6P"/><path d="M642.78 443.45C665.11 443.45 683.22 461.46 683.22 483.68C683.22 505.9 665.11 523.91 642.78 523.91C620.44 523.91 602.33 505.9 568.28 483.68C602.33 461.46 620.44 443.45 642.78 443.45Z" id="b3KNJBfWim"/><path d="M598.41 403.22C620.74 403.22 638.85 421.23 638.85 443.45C638.85 465.67 620.74 483.68 598.41 483.68C576.07 483.68 557.97 465.67 523.91 443.45C557.97 421.23 576.07 403.22 598.41 403.22Z" id="amjwPD4uI"/><path d="M598.41 321.84C620.74 321.84 638.85 339.85 638.85 362.07C638.85 384.29 620.74 402.3 598.41 402.3C576.07 402.3 557.97 384.29 523.91 362.07C557.97 339.85 576.07 321.84 598.41 321.84Z" id="b2Y2rAnyrI"/><path d="M642.78 281.61C665.11 281.61 683.22 299.62 683.22 321.84C683.22 344.06 665.11 362.07 642.78 362.07C620.44 362.07 602.33 344.06 568.28 321.84C602.33 299.62 620.44 281.61 642.78 281.61Z" id="dilUdz5wI"/><path d="M598.41 241.38C620.74 241.38 638.85 259.39 638.85 281.61C638.85 303.83 620.74 321.84 598.41 321.84C576.07 321.84 557.97 303.83 523.91 281.61C557.97 259.39 576.07 241.38 598.41 241.38Z" id="cgxCjRfu8"/><path d="M642.78 201.15C665.11 201.15 683.22 219.16 683.22 241.38C683.22 263.6 665.11 281.61 642.78 281.61C620.44 281.61 602.33 263.6 568.28 241.38C602.33 219.16 620.44 201.15 642.78 201.15Z" id="a5VBg2Vsb1"/><path d="M598.41 160.92C620.74 160.92 638.85 178.93 638.85 201.15C638.85 223.37 620.74 241.38 598.41 241.38C576.07 241.38 557.97 223.37 523.91 201.15C557.97 178.93 576.07 160.92 598.41 160.92Z" id="d3CKw6PTE4"/><path d="M642.78 120.69C665.11 120.69 683.22 138.7 683.22 160.92C683.22 183.14 665.11 201.15 642.78 201.15C620.44 201.15 602.33 183.14 568.28 160.92C602.33 138.7 620.44 120.69 642.78 120.69Z" id="a9OZRIdeF"/><path d="M598.41 80.46C620.74 80.46 638.85 98.47 638.85 120.69C638.85 142.91 620.74 160.92 598.41 160.92C576.07 160.92 557.97 142.91 523.91 120.69C557.97 98.47 576.07 80.46 598.41 80.46Z" id="b24eOlZYWJ"/><path d="M642.78 40.23C665.11 40.23 683.22 58.24 683.22 80.46C683.22 102.68 665.11 120.69 642.78 120.69C620.44 120.69 602.33 102.68 568.28 80.46C602.33 58.24 620.44 40.23 642.78 40.23Z" id="cnB24rYyO"/><path d="M598.41 0C620.74 0 638.85 18.01 638.85 40.23C638.85 62.45 620.74 80.46 598.41 80.46C576.07 80.46 557.97 62.45 523.91 40.23C557.97 18.01 576.07 0 598.41 0Z" id="a1lC4k4zo"/><path d="M540.94 684.83C563.27 684.83 581.38 702.84 581.38 725.06C581.38 747.28 563.27 765.29 540.94 765.29C518.6 765.29 500.49 747.28 466.44 725.06C500.49 702.84 518.6 684.83 540.94 684.83Z" id="bNNQxTje2"/><path d="M496.57 644.6C518.9 644.6 537.01 662.61 537.01 684.83C537.01 707.05 518.9 725.06 496.57 725.06C474.23 725.06 456.13 707.05 422.07 684.83C456.13 662.61 474.23 644.6 496.57 644.6Z" id="gMQk13mt"/><path d="M540.94 604.37C563.27 604.37 581.38 622.38 581.38 644.6C581.38 666.82 563.27 684.83 540.94 684.83C518.6 684.83 500.49 666.82 466.44 644.6C500.49 622.38 518.6 604.37 540.94 604.37Z" id="eToAprYpF"/><path d="M496.57 564.14C518.9 564.14 537.01 582.15 537.01 604.37C537.01 626.59 518.9 644.6 496.57 644.6C474.23 644.6 456.13 626.59 422.07 604.37C456.13 582.15 474.23 564.14 496.57 564.14Z" id="ajsB1PPIQ"/><path d="M496.57 483.68C518.9 483.68 537.01 501.69 537.01 523.91C537.01 546.13 518.9 564.14 496.57 564.14C474.23 564.14 456.13 546.13 422.07 523.91C456.13 501.69 474.23 483.68 496.57 483.68Z" id="c1M9QS1Tnd"/><path d="M540.94 442.53C563.27 442.53 581.38 460.54 581.38 482.76C581.38 504.98 563.27 522.99 540.94 522.99C518.6 522.99 500.49 504.98 466.44 482.76C500.49 460.54 518.6 442.53 540.94 442.53Z" id="d11ARtvN4v"/><path d="M496.57 402.3C518.9 402.3 537.01 420.31 537.01 442.53C537.01 464.75 518.9 482.76 496.57 482.76C474.23 482.76 456.13 464.75 422.07 442.53C456.13 420.31 474.23 402.3 496.57 402.3Z" id="a1AaikP91"/><path d="M540.94 362.07C563.27 362.07 581.38 380.08 581.38 402.3C581.38 424.52 563.27 442.53 540.94 442.53C518.6 442.53 500.49 424.52 466.44 402.3C500.49 380.08 518.6 362.07 540.94 362.07Z" id="a4CTm1j1sK"/><path d="M496.57 321.84C518.9 321.84 537.01 339.85 537.01 362.07C537.01 384.29 518.9 402.3 496.57 402.3C474.23 402.3 456.13 384.29 422.07 362.07C456.13 339.85 474.23 321.84 496.57 321.84Z" id="g377fiRrsq"/><path d="M540.94 281.61C563.27 281.61 581.38 299.62 581.38 321.84C581.38 344.06 563.27 362.07 540.94 362.07C518.6 362.07 500.49 344.06 466.44 321.84C500.49 299.62 518.6 281.61 540.94 281.61Z" id="aad9ZtP0W"/><path d="M496.57 241.38C518.9 241.38 537.01 259.39 537.01 281.61C537.01 303.83 518.9 321.84 496.57 321.84C474.23 321.84 456.13 303.83 422.07 281.61C456.13 259.39 474.23 241.38 496.57 241.38Z" id="b48MqPihFL"/><path d="M540.94 201.15C563.27 201.15 581.38 219.16 581.38 241.38C581.38 263.6 563.27 281.61 540.94 281.61C518.6 281.61 500.49 263.6 466.44 241.38C500.49 219.16 518.6 201.15 540.94 201.15Z" id="b1HsWGFxcI"/><path d="M540.94 120.69C563.27 120.69 581.38 138.7 581.38 160.92C581.38 183.14 563.27 201.15 540.94 201.15C518.6 201.15 500.49 183.14 466.44 160.92C500.49 138.7 518.6 120.69 540.94 120.69Z" id="ajlDugCKW"/><path d="M496.57 80.46C518.9 80.46 537.01 98.47 537.01 120.69C537.01 142.91 518.9 160.92 496.57 160.92C474.23 160.92 456.13 142.91 422.07 120.69C456.13 98.47 474.23 80.46 496.57 80.46Z" id="c8Sx4eDjD"/><path d="M540.94 40.23C563.27 40.23 581.38 58.24 581.38 80.46C581.38 102.68 563.27 120.69 540.94 120.69C518.6 120.69 500.49 102.68 466.44 80.46C500.49 58.24 518.6 40.23 540.94 40.23Z" id="aRE2zV8KK"/><path d="M496.57 0C518.9 0 537.01 18.01 537.01 40.23C537.01 62.45 518.9 80.46 496.57 80.46C474.23 80.46 456.13 62.45 422.07 40.23C456.13 18.01 474.23 0 496.57 0Z" id="e2aOiQC3na"/><path d="M540.94 -40.23C563.27 -40.23 581.38 -22.22 581.38 0C581.38 22.22 563.27 40.23 540.94 40.23C518.6 40.23 500.49 22.22 466.44 0C500.49 -22.22 518.6 -40.23 540.94 -40.23Z" id="atPN4Da"/><path d="M496.57 -80.46C518.9 -80.46 537.01 -62.45 537.01 -40.23C537.01 -18.01 518.9 0 496.57 0C474.23 0 456.13 -18.01 422.07 -40.23C456.13 -62.45 474.23 -80.46 496.57 -80.46Z" id="a45s9OJ2ZX"/><path d="M540.94 -120.69C563.27 -120.69 581.38 -102.68 581.38 -80.46C581.38 -58.24 563.27 -40.23 540.94 -40.23C518.6 -40.23 500.49 -58.24 466.44 -80.46C500.49 -102.68 518.6 -120.69 540.94 -120.69Z" id="h12Z3e0Ovx"/><path d="M496.57 -160.92C518.9 -160.92 537.01 -142.91 537.01 -120.69C537.01 -98.47 518.9 -80.46 496.57 -80.46C474.23 -80.46 456.13 -98.47 422.07 -120.69C456.13 -142.91 474.23 -160.92 496.57 -160.92Z" id="c2FKRmxeAu"/><path d="M540.94 -202.07C563.27 -202.07 581.38 -184.06 581.38 -161.84C581.38 -139.62 563.27 -121.61 540.94 -121.61C518.6 -121.61 500.49 -139.62 466.44 -161.84C500.49 -184.06 518.6 -202.07 540.94 -202.07Z" id="g2VfqWUvp7"/><path d="M496.57 -242.3C518.9 -242.3 537.01 -224.29 537.01 -202.07C537.01 -179.85 518.9 -161.84 496.57 -161.84C474.23 -161.84 456.13 -179.85 422.07 -202.07C456.13 -224.29 474.23 -242.3 496.57 -242.3Z" id="b14lwhDqb5"/><path d="M540.94 -282.53C563.27 -282.53 581.38 -264.52 581.38 -242.3C581.38 -220.08 563.27 -202.07 540.94 -202.07C518.6 -202.07 500.49 -220.08 466.44 -242.3C500.49 -264.52 518.6 -282.53 540.94 -282.53Z" id="c27EMXRoJv"/><path d="M496.57 -322.76C518.9 -322.76 537.01 -304.75 537.01 -282.53C537.01 -260.31 518.9 -242.3 496.57 -242.3C474.23 -242.3 456.13 -260.31 422.07 -282.53C456.13 -304.75 474.23 -322.76 496.57 -322.76Z" id="dd1xwaTC4"/><path d="M540.94 -362.99C563.27 -362.99 581.38 -344.98 581.38 -322.76C581.38 -300.54 563.27 -282.53 540.94 -282.53C518.6 -282.53 500.49 -300.54 466.44 -322.76C500.49 -344.98 518.6 -362.99 540.94 -362.99Z" id="cgkXAwYbY"/><path d="M496.57 -403.22C518.9 -403.22 537.01 -385.21 537.01 -362.99C537.01 -340.77 518.9 -322.76 496.57 -322.76C474.23 -322.76 456.13 -340.77 422.07 -362.99C456.13 -385.21 474.23 -403.22 496.57 -403.22Z" id="anToiUPnr"/><path d="M540.94 -443.45C563.27 -443.45 581.38 -425.44 581.38 -403.22C581.38 -381 563.27 -362.99 540.94 -362.99C518.6 -362.99 500.49 -381 466.44 -403.22C500.49 -425.44 518.6 -443.45 540.94 -443.45Z" id="aqHV9FH9J"/><path d="M496.57 -483.68C518.9 -483.68 537.01 -465.67 537.01 -443.45C537.01 -421.23 518.9 -403.22 496.57 -403.22C474.23 -403.22 456.13 -421.23 422.07 -443.45C456.13 -465.67 474.23 -483.68 496.57 -483.68Z" id="a6cwAprky"/><path d="M540.94 -523.91C563.27 -523.91 581.38 -505.9 581.38 -483.68C581.38 -461.46 563.27 -443.45 540.94 -443.45C518.6 -443.45 500.49 -461.46 466.44 -483.68C500.49 -505.9 518.6 -523.91 540.94 -523.91Z" id="b1vpdYXCN4"/><path d="M496.57 -564.14C518.9 -564.14 537.01 -546.13 537.01 -523.91C537.01 -501.69 518.9 -483.68 496.57 -483.68C474.23 -483.68 456.13 -501.69 422.07 -523.91C456.13 -546.13 474.23 -564.14 496.57 -564.14Z" id="f16hiHNBJu"/><path d="M439.1 765.29C461.43 765.29 479.54 783.3 479.54 805.52C479.54 827.74 461.43 845.75 439.1 845.75C416.76 845.75 398.65 827.74 364.6 805.52C398.65 783.3 416.76 765.29 439.1 765.29Z" id="arJiN1GHg"/><path d="M394.73 725.06C417.07 725.06 435.17 743.07 435.17 765.29C435.17 787.51 417.07 805.52 394.73 805.52C372.39 805.52 354.29 787.51 320.23 765.29C354.29 743.07 372.39 725.06 394.73 725.06Z" id="em5uglfq"/><path d="M439.1 684.83C461.43 684.83 479.54 702.84 479.54 725.06C479.54 747.28 461.43 765.29 439.1 765.29C416.76 765.29 398.65 747.28 364.6 725.06C398.65 702.84 416.76 684.83 439.1 684.83Z" id="n4DrjbNyb"/><path d="M394.73 644.6C417.07 644.6 435.17 662.61 435.17 684.83C435.17 707.05 417.07 725.06 394.73 725.06C372.39 725.06 354.29 707.05 320.23 684.83C354.29 662.61 372.39 644.6 394.73 644.6Z" id="b37OBkMXWF"/><path d="M439.1 604.37C461.43 604.37 479.54 622.38 479.54 644.6C479.54 666.82 461.43 684.83 439.1 684.83C416.76 684.83 398.65 666.82 364.6 644.6C398.65 622.38 416.76 604.37 439.1 604.37Z" id="cSrkX0KFx"/><path d="M394.73 564.14C417.07 564.14 435.17 582.15 435.17 604.37C435.17 626.59 417.07 644.6 394.73 644.6C372.39 644.6 354.29 626.59 320.23 604.37C354.29 582.15 372.39 564.14 394.73 564.14Z" id="k8yngda0n"/><path d="M439.1 522.99C461.43 522.99 479.54 541 479.54 563.22C479.54 585.44 461.43 603.45 439.1 603.45C416.76 603.45 398.65 585.44 364.6 563.22C398.65 541 416.76 522.99 439.1 522.99Z" id="d1VelUuxKt"/><path d="M394.73 482.76C417.07 482.76 435.17 500.77 435.17 522.99C435.17 545.21 417.07 563.22 394.73 563.22C372.39 563.22 354.29 545.21 320.23 522.99C354.29 500.77 372.39 482.76 394.73 482.76Z" id="b3Kp7HqFO5"/><path d="M439.1 442.53C461.43 442.53 479.54 460.54 479.54 482.76C479.54 504.98 461.43 522.99 439.1 522.99C416.76 522.99 398.65 504.98 364.6 482.76C398.65 460.54 416.76 442.53 439.1 442.53Z" id="abeSofJlj"/><path d="M394.73 402.3C417.07 402.3 435.17 420.31 435.17 442.53C435.17 464.75 417.07 482.76 394.73 482.76C372.39 482.76 354.29 464.75 320.23 442.53C354.29 420.31 372.39 402.3 394.73 402.3Z" id="b2ejGUnR4S"/><path d="M439.1 362.07C461.43 362.07 479.54 380.08 479.54 402.3C479.54 424.52 461.43 442.53 439.1 442.53C416.76 442.53 398.65 424.52 364.6 402.3C398.65 380.08 416.76 362.07 439.1 362.07Z" id="aLG2roF9X"/><path d="M394.73 321.84C417.07 321.84 435.17 339.85 435.17 362.07C435.17 384.29 417.07 402.3 394.73 402.3C372.39 402.3 354.29 384.29 320.23 362.07C354.29 339.85 372.39 321.84 394.73 321.84Z" id="d2clEJ8RAI"/><path d="M394.73 241.38C417.07 241.38 435.17 259.39 435.17 281.61C435.17 303.83 417.07 321.84 394.73 321.84C372.39 321.84 354.29 303.83 320.23 281.61C354.29 259.39 372.39 241.38 394.73 241.38Z" id="fAyq0efkX"/><path d="M439.1 201.15C461.43 201.15 479.54 219.16 479.54 241.38C479.54 263.6 461.43 281.61 439.1 281.61C416.76 281.61 398.65 263.6 364.6 241.38C398.65 219.16 416.76 201.15 439.1 201.15Z" id="d3XDZE90"/><path d="M394.73 160.92C417.07 160.92 435.17 178.93 435.17 201.15C435.17 223.37 417.07 241.38 394.73 241.38C372.39 241.38 354.29 223.37 320.23 201.15C354.29 178.93 372.39 160.92 394.73 160.92Z" id="c29F9q72Rr"/><path d="M439.1 120.69C461.43 120.69 479.54 138.7 479.54 160.92C479.54 183.14 461.43 201.15 439.1 201.15C416.76 201.15 398.65 183.14 364.6 160.92C398.65 138.7 416.76 120.69 439.1 120.69Z" id="glMfRSnNK"/><path d="M394.73 80.46C417.07 80.46 435.17 98.47 435.17 120.69C435.17 142.91 417.07 160.92 394.73 160.92C372.39 160.92 354.29 142.91 320.23 120.69C354.29 98.47 372.39 80.46 394.73 80.46Z" id="a2iZjy7HxK"/><path d="M439.1 40.23C461.43 40.23 479.54 58.24 479.54 80.46C479.54 102.68 461.43 120.69 439.1 120.69C416.76 120.69 398.65 102.68 364.6 80.46C398.65 58.24 416.76 40.23 439.1 40.23Z" id="a1GTMzGJou"/><path d="M394.73 0C417.07 0 435.17 18.01 435.17 40.23C435.17 62.45 417.07 80.46 394.73 80.46C372.39 80.46 354.29 62.45 320.23 40.23C354.29 18.01 372.39 0 394.73 0Z" id="a3QSYnLJ6"/><path d="M439.1 -41.15C461.43 -41.15 479.54 -23.14 479.54 -0.92C479.54 21.3 461.43 39.31 439.1 39.31C416.76 39.31 398.65 21.3 364.6 -0.92C398.65 -23.14 416.76 -41.15 439.1 -41.15Z" id="e1hxvSdfD7"/><path d="M394.73 -81.38C417.07 -81.38 435.17 -63.37 435.17 -41.15C435.17 -18.93 417.07 -0.92 394.73 -0.92C372.39 -0.92 354.29 -18.93 320.23 -41.15C354.29 -63.37 372.39 -81.38 394.73 -81.38Z" id="aw8XWsFHd"/><path d="M439.1 -121.61C461.43 -121.61 479.54 -103.6 479.54 -81.38C479.54 -59.16 461.43 -41.15 439.1 -41.15C416.76 -41.15 398.65 -59.16 364.6 -81.38C398.65 -103.6 416.76 -121.61 439.1 -121.61Z" id="cwTXmm4vO"/><path d="M394.73 -161.84C417.07 -161.84 435.17 -143.83 435.17 -121.61C435.17 -99.39 417.07 -81.38 394.73 -81.38C372.39 -81.38 354.29 -99.39 320.23 -121.61C354.29 -143.83 372.39 -161.84 394.73 -161.84Z" id="cYrSmA0x"/><path d="M439.1 -202.07C461.43 -202.07 479.54 -184.06 479.54 -161.84C479.54 -139.62 461.43 -121.61 439.1 -121.61C416.76 -121.61 398.65 -139.62 364.6 -161.84C398.65 -184.06 416.76 -202.07 439.1 -202.07Z" id="aaSOTDUVA"/><path d="M394.73 -242.3C417.07 -242.3 435.17 -224.29 435.17 -202.07C435.17 -179.85 417.07 -161.84 394.73 -161.84C372.39 -161.84 354.29 -179.85 320.23 -202.07C354.29 -224.29 372.39 -242.3 394.73 -242.3Z" id="b10cLTyO51"/><path d="M439.1 -282.53C461.43 -282.53 479.54 -264.52 479.54 -242.3C479.54 -220.08 461.43 -202.07 439.1 -202.07C416.76 -202.07 398.65 -220.08 364.6 -242.3C398.65 -264.52 416.76 -282.53 439.1 -282.53Z" id="d24uJ9J4uU"/><path d="M394.73 -322.76C417.07 -322.76 435.17 -304.75 435.17 -282.53C435.17 -260.31 417.07 -242.3 394.73 -242.3C372.39 -242.3 354.29 -260.31 320.23 -282.53C354.29 -304.75 372.39 -322.76 394.73 -322.76Z" id="cCgf5xZYA"/><path d="M439.1 -362.99C461.43 -362.99 479.54 -344.98 479.54 -322.76C479.54 -300.54 461.43 -282.53 439.1 -282.53C416.76 -282.53 398.65 -300.54 364.6 -322.76C398.65 -344.98 416.76 -362.99 439.1 -362.99Z" id="aZmA3r8i"/><path d="M394.73 -403.22C417.07 -403.22 435.17 -385.21 435.17 -362.99C435.17 -340.77 417.07 -322.76 394.73 -322.76C372.39 -322.76 354.29 -340.77 320.23 -362.99C354.29 -385.21 372.39 -403.22 394.73 -403.22Z" id="g9mj7LyWp"/><path d="M337.26 604.37C359.59 604.37 377.7 622.38 377.7 644.6C377.7 666.82 359.59 684.83 337.26 684.83C314.92 684.83 296.82 666.82 262.76 644.6C296.82 622.38 314.92 604.37 337.26 604.37Z" id="b2LsgsQlR"/><path d="M292.89 564.14C315.23 564.14 333.33 582.15 333.33 604.37C333.33 626.59 315.23 644.6 292.89 644.6C270.55 644.6 252.45 626.59 218.39 604.37C252.45 582.15 270.55 564.14 292.89 564.14Z" id="c1sFQNrcZ8"/><path d="M337.26 523.91C359.59 523.91 377.7 541.92 377.7 564.14C377.7 586.36 359.59 604.37 337.26 604.37C314.92 604.37 296.82 586.36 262.76 564.14C296.82 541.92 314.92 523.91 337.26 523.91Z" id="cJdcWJ3Lj"/><path d="M292.89 483.68C315.23 483.68 333.33 501.69 333.33 523.91C333.33 546.13 315.23 564.14 292.89 564.14C270.55 564.14 252.45 546.13 218.39 523.91C252.45 501.69 270.55 483.68 292.89 483.68Z" id="aF0fE9OvL"/><path d="M337.26 443.45C359.59 443.45 377.7 461.46 377.7 483.68C377.7 505.9 359.59 523.91 337.26 523.91C314.92 523.91 296.82 505.9 262.76 483.68C296.82 461.46 314.92 443.45 337.26 443.45Z" id="e2iEzdyvBx"/><path d="M292.89 403.22C315.23 403.22 333.33 421.23 333.33 443.45C333.33 465.67 315.23 483.68 292.89 483.68C270.55 483.68 252.45 465.67 218.39 443.45C252.45 421.23 270.55 403.22 292.89 403.22Z" id="aTGs5HDG4"/><path d="M337.26 362.07C359.59 362.07 377.7 380.08 377.7 402.3C377.7 424.52 359.59 442.53 337.26 442.53C314.92 442.53 296.82 424.52 262.76 402.3C296.82 380.08 314.92 362.07 337.26 362.07Z" id="aOWhqcpsT"/><path d="M292.89 321.84C315.23 321.84 333.33 339.85 333.33 362.07C333.33 384.29 315.23 402.3 292.89 402.3C270.55 402.3 252.45 384.29 218.39 362.07C252.45 339.85 270.55 321.84 292.89 321.84Z" id="a1QtkzzVgj"/><path d="M337.26 281.61C359.59 281.61 377.7 299.62 377.7 321.84C377.7 344.06 359.59 362.07 337.26 362.07C314.92 362.07 296.82 344.06 262.76 321.84C296.82 299.62 314.92 281.61 337.26 281.61Z" id="b2wJBfoirq"/><path d="M292.89 241.38C315.23 241.38 333.33 259.39 333.33 281.61C333.33 303.83 315.23 321.84 292.89 321.84C270.55 321.84 252.45 303.83 218.39 281.61C252.45 259.39 270.55 241.38 292.89 241.38Z" id="a2kbGxFXY"/><path d="M337.26 201.15C359.59 201.15 377.7 219.16 377.7 241.38C377.7 263.6 359.59 281.61 337.26 281.61C314.92 281.61 296.82 263.6 262.76 241.38C296.82 219.16 314.92 201.15 337.26 201.15Z" id="a1Kh9TEPhr"/><path d="M292.89 160.92C315.23 160.92 333.33 178.93 333.33 201.15C333.33 223.37 315.23 241.38 292.89 241.38C270.55 241.38 252.45 223.37 218.39 201.15C252.45 178.93 270.55 160.92 292.89 160.92Z" id="j2bs6hJNnS"/><path d="M337.26 120.69C359.59 120.69 377.7 138.7 377.7 160.92C377.7 183.14 359.59 201.15 337.26 201.15C314.92 201.15 296.82 183.14 262.76 160.92C296.82 138.7 314.92 120.69 337.26 120.69Z" id="aeNj2lDOO"/><path d="M292.89 80.46C315.23 80.46 333.33 98.47 333.33 120.69C333.33 142.91 315.23 160.92 292.89 160.92C270.55 160.92 252.45 142.91 218.39 120.69C252.45 98.47 270.55 80.46 292.89 80.46Z" id="bNIJGh3Ps"/><path d="M292.89 0C315.23 0 333.33 18.01 333.33 40.23C333.33 62.45 315.23 80.46 292.89 80.46C270.55 80.46 252.45 62.45 218.39 40.23C252.45 18.01 270.55 0 292.89 0Z" id="b6jRiaQwyt"/><path d="M235.42 443.45C257.76 443.45 275.86 461.46 275.86 483.68C275.86 505.9 257.76 523.91 235.42 523.91C213.08 523.91 194.98 505.9 160.92 483.68C194.98 461.46 213.08 443.45 235.42 443.45Z" id="c6MjlBZOGO"/><path d="M191.05 403.22C213.39 403.22 231.49 421.23 231.49 443.45C231.49 465.67 213.39 483.68 191.05 483.68C168.72 483.68 150.61 465.67 116.55 443.45C150.61 421.23 168.72 403.22 191.05 403.22Z" id="f15sLt5tzy"/><path d="M235.42 362.99C257.76 362.99 275.86 381 275.86 403.22C275.86 425.44 257.76 443.45 235.42 443.45C213.08 443.45 194.98 425.44 160.92 403.22C194.98 381 213.08 362.99 235.42 362.99Z" id="a6pYEcJ9n8"/><path d="M191.05 322.76C213.39 322.76 231.49 340.77 231.49 362.99C231.49 385.21 213.39 403.22 191.05 403.22C168.72 403.22 150.61 385.21 116.55 362.99C150.61 340.77 168.72 322.76 191.05 322.76Z" id="k4902N8hnr"/><path d="M235.42 282.53C257.76 282.53 275.86 300.54 275.86 322.76C275.86 344.98 257.76 362.99 235.42 362.99C213.08 362.99 194.98 344.98 160.92 322.76C194.98 300.54 213.08 282.53 235.42 282.53Z" id="a27Ne0k2j"/><path d="M235.42 201.15C257.76 201.15 275.86 219.16 275.86 241.38C275.86 263.6 257.76 281.61 235.42 281.61C213.08 281.61 194.98 263.6 160.92 241.38C194.98 219.16 213.08 201.15 235.42 201.15Z" id="c4oTrNb1c5"/><path d="M191.05 160.92C213.39 160.92 231.49 178.93 231.49 201.15C231.49 223.37 213.39 241.38 191.05 241.38C168.72 241.38 150.61 223.37 116.55 201.15C150.61 178.93 168.72 160.92 191.05 160.92Z" id="b1O95cW5EL"/><path d="M235.42 120.69C257.76 120.69 275.86 138.7 275.86 160.92C275.86 183.14 257.76 201.15 235.42 201.15C213.08 201.15 194.98 183.14 160.92 160.92C194.98 138.7 213.08 120.69 235.42 120.69Z" id="d1s8jHomra"/><path d="M191.05 80.46C213.39 80.46 231.49 98.47 231.49 120.69C231.49 142.91 213.39 160.92 191.05 160.92C168.72 160.92 150.61 142.91 116.55 120.69C150.61 98.47 168.72 80.46 191.05 80.46Z" id="a50BlfLPLj"/><path d="M191.05 0C213.39 0 231.49 18.01 231.49 40.23C231.49 62.45 213.39 80.46 191.05 80.46C168.72 80.46 150.61 62.45 116.55 40.23C150.61 18.01 168.72 0 191.05 0Z" id="aM8Erz5PD"/><path d="M235.42 -40.23C257.76 -40.23 275.86 -22.22 275.86 0C275.86 22.22 257.76 40.23 235.42 40.23C213.08 40.23 194.98 22.22 160.92 0C194.98 -22.22 213.08 -40.23 235.42 -40.23Z" id="b2mNkkeqsS"/><path d="M191.05 -80.46C213.39 -80.46 231.49 -62.45 231.49 -40.23C231.49 -18.01 213.39 0 191.05 0C168.72 0 150.61 -18.01 116.55 -40.23C150.61 -62.45 168.72 -80.46 191.05 -80.46Z" id="g2GovWbCAU"/><path d="M235.42 -120.69C257.76 -120.69 275.86 -102.68 275.86 -80.46C275.86 -58.24 257.76 -40.23 235.42 -40.23C213.08 -40.23 194.98 -58.24 160.92 -80.46C194.98 -102.68 213.08 -120.69 235.42 -120.69Z" id="aHj8CzXYs"/><path d="M191.05 -160.92C213.39 -160.92 231.49 -142.91 231.49 -120.69C231.49 -98.47 213.39 -80.46 191.05 -80.46C168.72 -80.46 150.61 -98.47 116.55 -120.69C150.61 -142.91 168.72 -160.92 191.05 -160.92Z" id="b2pZc9CuQv"/><path d="M235.42 1088.05C257.76 1088.05 275.86 1106.06 275.86 1128.28C275.86 1150.49 257.76 1168.51 235.42 1168.51C213.08 1168.51 194.98 1150.49 160.92 1128.28C194.98 1106.06 213.08 1088.05 235.42 1088.05Z" id="c6LXPtoQHS"/><path d="M191.05 1047.82C213.39 1047.82 231.49 1065.83 231.49 1088.05C231.49 1110.26 213.39 1128.28 191.05 1128.28C168.72 1128.28 150.61 1110.26 116.55 1088.05C150.61 1065.83 168.72 1047.82 191.05 1047.82Z" id="f6gpNHoqE"/><path d="M235.42 1007.59C257.76 1007.59 275.86 1025.6 275.86 1047.82C275.86 1070.03 257.76 1088.05 235.42 1088.05C213.08 1088.05 194.98 1070.03 160.92 1047.82C194.98 1025.6 213.08 1007.59 235.42 1007.59Z" id="e5uqgLjniP"/><path d="M191.05 967.36C213.39 967.36 231.49 985.37 231.49 1007.59C231.49 1029.8 213.39 1047.82 191.05 1047.82C168.72 1047.82 150.61 1029.8 116.55 1007.59C150.61 985.37 168.72 967.36 191.05 967.36Z" id="eaF3eq5eS"/><path d="M235.42 927.13C257.76 927.13 275.86 945.14 275.86 967.36C275.86 989.57 257.76 1007.59 235.42 1007.59C213.08 1007.59 194.98 989.57 160.92 967.36C194.98 945.14 213.08 927.13 235.42 927.13Z" id="ad3tiy8xu"/><path d="M191.05 886.9C213.39 886.9 231.49 904.91 231.49 927.13C231.49 949.34 213.39 967.36 191.05 967.36C168.72 967.36 150.61 949.34 116.55 927.13C150.61 904.91 168.72 886.9 191.05 886.9Z" id="a13kg19Mbh"/><path d="M235.42 845.75C257.76 845.75 275.86 863.76 275.86 885.98C275.86 908.2 257.76 926.21 235.42 926.21C213.08 926.21 194.98 908.2 160.92 885.98C194.98 863.76 213.08 845.75 235.42 845.75Z" id="a3S6Uhjhet"/><path d="M191.05 805.52C213.39 805.52 231.49 823.53 231.49 845.75C231.49 867.97 213.39 885.98 191.05 885.98C168.72 885.98 150.61 867.97 116.55 845.75C150.61 823.53 168.72 805.52 191.05 805.52Z" id="a5xLkHSeZL"/><path d="M235.42 765.29C257.76 765.29 275.86 783.3 275.86 805.52C275.86 827.74 257.76 845.75 235.42 845.75C213.08 845.75 194.98 827.74 160.92 805.52C194.98 783.3 213.08 765.29 235.42 765.29Z" id="b1ZN2fdEBl"/><path d="M191.05 725.06C213.39 725.06 231.49 743.07 231.49 765.29C231.49 787.51 213.39 805.52 191.05 805.52C168.72 805.52 150.61 787.51 116.55 765.29C150.61 743.07 168.72 725.06 191.05 725.06Z" id="caGYiISad"/><path d="M235.42 684.83C257.76 684.83 275.86 702.84 275.86 725.06C275.86 747.28 257.76 765.29 235.42 765.29C213.08 765.29 194.98 747.28 160.92 725.06C194.98 702.84 213.08 684.83 235.42 684.83Z" id="c5Ec3WxveJ"/><path d="M191.05 644.6C213.39 644.6 231.49 662.61 231.49 684.83C231.49 707.05 213.39 725.06 191.05 725.06C168.72 725.06 150.61 707.05 116.55 684.83C150.61 662.61 168.72 644.6 191.05 644.6Z" id="m1xamztgEP"/><path d="M235.42 604.37C257.76 604.37 275.86 622.38 275.86 644.6C275.86 666.82 257.76 684.83 235.42 684.83C213.08 684.83 194.98 666.82 160.92 644.6C194.98 622.38 213.08 604.37 235.42 604.37Z" id="b2bl0FFpRY"/><path d="M191.05 564.14C213.39 564.14 231.49 582.15 231.49 604.37C231.49 626.59 213.39 644.6 191.05 644.6C168.72 644.6 150.61 626.59 116.55 604.37C150.61 582.15 168.72 564.14 191.05 564.14Z" id="f5k7LyM3lk"/><path d="M191.05 483.68C213.39 483.68 231.49 501.69 231.49 523.91C231.49 546.13 213.39 564.14 191.05 564.14C168.72 564.14 150.61 546.13 116.55 523.91C150.61 501.69 168.72 483.68 191.05 483.68Z" id="adZUfg6A7"/></defs><g><g><use xlink:href="#d9QpYiK81" opacity="1" fill="#568b99" fill-opacity="1"/><g><use xlink:href="#d9QpYiK81" opacity="1" fill-opacity="0" stroke="#65656b" stroke-width="1" stroke-opacity="1"/></g></g><g><use xlink:href="#c5WeU8K2r" opacity="0.8" fill="#a3b0b3" fill-opacity="1"/><g><use xlink:href="#c5WeU8K2r" opacity="0.8" fill-opacity="0" stroke="#ffffff" stroke-width="1" stroke-opacity="1"/></g></g><g><use xlink:href="#acVCkszyx" opacity="0.8" fill="#ebf1f2" fill-opacity="1"/><g><use xlink:href="#acVCkszyx" opacity="0.8" fill-opacity="0" stroke="#000000" stroke-width="1" stroke-opacity="1"/></g></g><g><use xlink:href="#bJbDUSw6P" opacity="1" fill="#568b99" fill-opacity="1"/><g><use xlink:href="#bJbDUSw6P" opacity="1" fill-opacity="0" stroke="#65656b" stroke-width="1" stroke-opacity="1"/></g></g><g><use xlink:href="#b3KNJBfWim" opacity="0.8" fill="#ebf1f2" fill-opacity="1"/><g><use xlink:href="#b3KNJBfWim" opacity="0.8" fill-opacity="0" stroke="#000000" stroke-width="1" stroke-opacity="1"/></g></g><g><use xlink:href="#amjwPD4uI" opacity="0.8" fill="#a3b0b3" fill-opacity="1"/><g><use xlink:href="#amjwPD4uI" opacity="0.8" fill-opacity="0" stroke="#ffffff" stroke-width="1" stroke-opacity="1"/></g></g><g><use xlink:href="#b2Y2rAnyrI" opacity="0.8" fill="#a3b0b3" fill-opacity="1"/><g><use xlink:href="#b2Y2rAnyrI" opacity="0.8" fill-opacity="0" stroke="#ffffff" stroke-width="1" stroke-opacity="1"/></g></g><g><use xlink:href="#dilUdz5wI" opacity="0.8" fill="#ebf1f2" fill-opacity="1"/><g><use xlink:href="#dilUdz5wI" opacity="0.8" fill-opacity="0" stroke="#000000" stroke-width="1" stroke-opacity="1"/></g></g><g><use xlink:href="#cgxCjRfu8" opacity="1" fill="#568b99" fill-opacity="1"/><g><use xlink:href="#cgxCjRfu8" opacity="1" fill-opacity="0" stroke="#65656b" stroke-width="1" stroke-opacity="1"/></g></g><g><use xlink:href="#a5VBg2Vsb1" opacity="0.8" fill="#ebf1f2" fill-opacity="1"/><g><use xlink:href="#a5VBg2Vsb1" opacity="0.8" fill-opacity="0" stroke="#000000" stroke-width="1" stroke-opacity="1"/></g></g><g><use xlink:href="#d3CKw6PTE4" opacity="0.8" fill="#a3b0b3" fill-opacity="1"/><g><use xlink:href="#d3CKw6PTE4" opacity="0.8" fill-opacity="0" stroke="#ffffff" stroke-width="1" stroke-opacity="1"/></g></g><g><use xlink:href="#a9OZRIdeF" opacity="0.8" fill="#ebf1f2" fill-opacity="1"/><g><use xlink:href="#a9OZRIdeF" opacity="0.8" fill-opacity="0" stroke="#000000" stroke-width="1" stroke-opacity="1"/></g></g><g><use xlink:href="#b24eOlZYWJ" opacity="1" fill="#568b99" fill-opacity="1"/><g><use xlink:href="#b24eOlZYWJ" opacity="1" fill-opacity="0" stroke="#65656b" stroke-width="1" stroke-opacity="1"/></g></g><g><use xlink:href="#cnB24rYyO" opacity="1" fill="#568b99" fill-opacity="1"/><g><use xlink:href="#cnB24rYyO" opacity="1" fill-opacity="0" stroke="#65656b" stroke-width="1" stroke-opacity="1"/></g></g><g><use xlink:href="#a1lC4k4zo" opacity="0.8" fill="#a3b0b3" fill-opacity="1"/><g><use xlink:href="#a1lC4k4zo" opacity="0.8" fill-opacity="0" stroke="#ffffff" stroke-width="1" stroke-opacity="1"/></g></g><g><use xlink:href="#bNNQxTje2" opacity="1" fill="#568b99" fill-opacity="1"/><g><use xlink:href="#bNNQxTje2" opacity="1" fill-opacity="0" stroke="#65656b" stroke-width="1" stroke-opacity="1"/></g></g><g><use xlink:href="#gMQk13mt" opacity="0.8" fill="#a3b0b3" fill-opacity="1"/><g><use xlink:href="#gMQk13mt" opacity="0.8" fill-opacity="0" stroke="#ffffff" stroke-width="1" stroke-opacity="1"/></g></g><g><use xlink:href="#eToAprYpF" opacity="0.8" fill="#ebf1f2" fill-opacity="1"/><g><use xlink:href="#eToAprYpF" opacity="0.8" fill-opacity="0" stroke="#000000" stroke-width="1" stroke-opacity="1"/></g></g><g><use xlink:href="#ajsB1PPIQ" opacity="1" fill="#568b99" fill-opacity="1"/><g><use xlink:href="#ajsB1PPIQ" opacity="1" fill-opacity="0" stroke="#65656b" stroke-width="1" stroke-opacity="1"/></g></g><g><use xlink:href="#c1M9QS1Tnd" opacity="0.8" fill="#a3b0b3" fill-opacity="1"/><g><use xlink:href="#c1M9QS1Tnd" opacity="0.8" fill-opacity="0" stroke="#ffffff" stroke-width="1" stroke-opacity="1"/></g></g><g><use xlink:href="#d11ARtvN4v" opacity="1" fill="#568b99" fill-opacity="1"/><g><use xlink:href="#d11ARtvN4v" opacity="1" fill-opacity="0" stroke="#65656b" stroke-width="1" stroke-opacity="1"/></g></g><g><use xlink:href="#a1AaikP91" opacity="0.8" fill="#a3b0b3" fill-opacity="1"/><g><use xlink:href="#a1AaikP91" opacity="0.8" fill-opacity="0" stroke="#ffffff" stroke-width="1" stroke-opacity="1"/></g></g><g><use xlink:href="#a4CTm1j1sK" opacity="0.8" fill="#ebf1f2" fill-opacity="1"/><g><use xlink:href="#a4CTm1j1sK" opacity="0.8" fill-opacity="0" stroke="#000000" stroke-width="1" stroke-opacity="1"/></g></g><g><use xlink:href="#g377fiRrsq" opacity="1" fill="#568b99" fill-opacity="1"/><g><use xlink:href="#g377fiRrsq" opacity="1" fill-opacity="0" stroke="#65656b" stroke-width="1" stroke-opacity="1"/></g></g><g><use xlink:href="#aad9ZtP0W" opacity="0.8" fill="#ebf1f2" fill-opacity="1"/><g><use xlink:href="#aad9ZtP0W" opacity="0.8" fill-opacity="0" stroke="#000000" stroke-width="1" stroke-opacity="1"/></g></g><g><use xlink:href="#b48MqPihFL" opacity="0.8" fill="#a3b0b3" fill-opacity="1"/><g><use xlink:href="#b48MqPihFL" opacity="0.8" fill-opacity="0" stroke="#ffffff" stroke-width="1" stroke-opacity="1"/></g></g><g><use xlink:href="#b1HsWGFxcI" opacity="0.8" fill="#ebf1f2" fill-opacity="1"/><g><use xlink:href="#b1HsWGFxcI" opacity="0.8" fill-opacity="0" stroke="#000000" stroke-width="1" stroke-opacity="1"/></g></g><g><use xlink:href="#ajlDugCKW" opacity="1" fill="#b9b268" fill-opacity="1"/><g><use xlink:href="#ajlDugCKW" opacity="1" fill-opacity="0" stroke="#65656b" stroke-width="1" stroke-opacity="1"/></g></g><g><use xlink:href="#c8Sx4eDjD" opacity="0.8" fill="#a3b0b3" fill-opacity="1"/><g><use xlink:href="#c8Sx4eDjD" opacity="0.8" fill-opacity="0" stroke="#ffffff" stroke-width="1" stroke-opacity="1"/></g></g><g><use xlink:href="#aRE2zV8KK" opacity="1" fill="#568b99" fill-opacity="1"/><g><use xlink:href="#aRE2zV8KK" opacity="1" fill-opacity="0" stroke="#65656b" stroke-width="1" stroke-opacity="1"/></g></g><g><use xlink:href="#e2aOiQC3na" opacity="0.8" fill="#a3b0b3" fill-opacity="1"/><g><use xlink:href="#e2aOiQC3na" opacity="0.8" fill-opacity="0" stroke="#ffffff" stroke-width="1" stroke-opacity="1"/></g></g><g><use xlink:href="#atPN4Da" opacity="0.8" fill="#ebf1f2" fill-opacity="1"/><g><use xlink:href="#atPN4Da" opacity="0.8" fill-opacity="0" stroke="#000000" stroke-width="1" stroke-opacity="1"/></g></g><g><use xlink:href="#a45s9OJ2ZX" opacity="1" fill="#568b99" fill-opacity="1"/><g><use xlink:href="#a45s9OJ2ZX" opacity="1" fill-opacity="0" stroke="#65656b" stroke-width="1" stroke-opacity="1"/></g></g><g><use xlink:href="#h12Z3e0Ovx" opacity="0.8" fill="#ebf1f2" fill-opacity="1"/><g><use xlink:href="#h12Z3e0Ovx" opacity="0.8" fill-opacity="0" stroke="#000000" stroke-width="1" stroke-opacity="1"/></g></g><g><use xlink:href="#c2FKRmxeAu" opacity="0.8" fill="#a3b0b3" fill-opacity="1"/><g><use xlink:href="#c2FKRmxeAu" opacity="0.8" fill-opacity="0" stroke="#ffffff" stroke-width="1" stroke-opacity="1"/></g></g><g><use xlink:href="#g2VfqWUvp7" opacity="1" fill="#568b99" fill-opacity="1"/><g><use xlink:href="#g2VfqWUvp7" opacity="1" fill-opacity="0" stroke="#65656b" stroke-width="1" stroke-opacity="1"/></g></g><g><use xlink:href="#b14lwhDqb5" opacity="0.8" fill="#a3b0b3" fill-opacity="1"/><g><use xlink:href="#b14lwhDqb5" opacity="0.8" fill-opacity="0" stroke="#ffffff" stroke-width="1" stroke-opacity="1"/></g></g><g><use xlink:href="#c27EMXRoJv" opacity="0.8" fill="#ebf1f2" fill-opacity="1"/><g><use xlink:href="#c27EMXRoJv" opacity="0.8" fill-opacity="0" stroke="#000000" stroke-width="1" stroke-opacity="1"/></g></g><g><use xlink:href="#dd1xwaTC4" opacity="1" fill="#568b99" fill-opacity="1"/><g><use xlink:href="#dd1xwaTC4" opacity="1" fill-opacity="0" stroke="#65656b" stroke-width="1" stroke-opacity="1"/></g></g><g><use xlink:href="#cgkXAwYbY" opacity="0.8" fill="#ebf1f2" fill-opacity="1"/><g><use xlink:href="#cgkXAwYbY" opacity="0.8" fill-opacity="0" stroke="#000000" stroke-width="1" stroke-opacity="1"/></g></g><g><use xlink:href="#anToiUPnr" opacity="0.8" fill="#a3b0b3" fill-opacity="1"/><g><use xlink:href="#anToiUPnr" opacity="0.8" fill-opacity="0" stroke="#ffffff" stroke-width="1" stroke-opacity="1"/></g></g><g><use xlink:href="#aqHV9FH9J" opacity="0.8" fill="#ebf1f2" fill-opacity="1"/><g><use xlink:href="#aqHV9FH9J" opacity="0.8" fill-opacity="0" stroke="#000000" stroke-width="1" stroke-opacity="1"/></g></g><g><use xlink:href="#a6cwAprky" opacity="1" fill="#568b99" fill-opacity="1"/><g><use xlink:href="#a6cwAprky" opacity="1" fill-opacity="0" stroke="#65656b" stroke-width="1" stroke-opacity="1"/></g></g><g><use xlink:href="#b1vpdYXCN4" opacity="1" fill="#568b99" fill-opacity="1"/><g><use xlink:href="#b1vpdYXCN4" opacity="1" fill-opacity="0" stroke="#65656b" stroke-width="1" stroke-opacity="1"/></g></g><g><use xlink:href="#f16hiHNBJu" opacity="0.8" fill="#a3b0b3" fill-opacity="1"/><g><use xlink:href="#f16hiHNBJu" opacity="0.8" fill-opacity="0" stroke="#ffffff" stroke-width="1" stroke-opacity="1"/></g></g><g><use xlink:href="#arJiN1GHg" opacity="1" fill="#568b99" fill-opacity="1"/><g><use xlink:href="#arJiN1GHg" opacity="1" fill-opacity="0" stroke="#65656b" stroke-width="1" stroke-opacity="1"/></g></g><g><use xlink:href="#em5uglfq" opacity="0.8" fill="#a3b0b3" fill-opacity="1"/><g><use xlink:href="#em5uglfq" opacity="0.8" fill-opacity="0" stroke="#ffffff" stroke-width="1" stroke-opacity="1"/></g></g><g><use xlink:href="#n4DrjbNyb" opacity="0.8" fill="#ebf1f2" fill-opacity="1"/><g><use xlink:href="#n4DrjbNyb" opacity="0.8" fill-opacity="0" stroke="#000000" stroke-width="1" stroke-opacity="1"/></g></g><g><use xlink:href="#b37OBkMXWF" opacity="1" fill="#568b99" fill-opacity="1"/><g><use xlink:href="#b37OBkMXWF" opacity="1" fill-opacity="0" stroke="#65656b" stroke-width="1" stroke-opacity="1"/></g></g><g><use xlink:href="#cSrkX0KFx" opacity="0.8" fill="#ebf1f2" fill-opacity="1"/><g><use xlink:href="#cSrkX0KFx" opacity="0.8" fill-opacity="0" stroke="#000000" stroke-width="1" stroke-opacity="1"/></g></g><g><use xlink:href="#k8yngda0n" opacity="0.8" fill="#a3b0b3" fill-opacity="1"/><g><use xlink:href="#k8yngda0n" opacity="0.8" fill-opacity="0" stroke="#ffffff" stroke-width="1" stroke-opacity="1"/></g></g><g><use xlink:href="#d1VelUuxKt" opacity="1" fill="#568b99" fill-opacity="1"/><g><use xlink:href="#d1VelUuxKt" opacity="1" fill-opacity="0" stroke="#65656b" stroke-width="1" stroke-opacity="1"/></g></g><g><use xlink:href="#b3Kp7HqFO5" opacity="0.8" fill="#a3b0b3" fill-opacity="1"/><g><use xlink:href="#b3Kp7HqFO5" opacity="0.8" fill-opacity="0" stroke="#ffffff" stroke-width="1" stroke-opacity="1"/></g></g><g><use xlink:href="#abeSofJlj" opacity="0.8" fill="#ebf1f2" fill-opacity="1"/><g><use xlink:href="#abeSofJlj" opacity="0.8" fill-opacity="0" stroke="#000000" stroke-width="1" stroke-opacity="1"/></g></g><g><use xlink:href="#b2ejGUnR4S" opacity="1" fill="#568b99" fill-opacity="1"/><g><use xlink:href="#b2ejGUnR4S" opacity="1" fill-opacity="0" stroke="#65656b" stroke-width="1" stroke-opacity="1"/></g></g><g><use xlink:href="#aLG2roF9X" opacity="0.8" fill="#ebf1f2" fill-opacity="1"/><g><use xlink:href="#aLG2roF9X" opacity="0.8" fill-opacity="0" stroke="#000000" stroke-width="1" stroke-opacity="1"/></g></g><g><use xlink:href="#d2clEJ8RAI" opacity="0.8" fill="#a3b0b3" fill-opacity="1"/><g><use xlink:href="#d2clEJ8RAI" opacity="0.8" fill-opacity="0" stroke="#ffffff" stroke-width="1" stroke-opacity="1"/></g></g><g><use xlink:href="#fAyq0efkX" opacity="1" fill="#568b99" fill-opacity="1"/><g><use xlink:href="#fAyq0efkX" opacity="1" fill-opacity="0" stroke="#65656b" stroke-width="1" stroke-opacity="1"/></g></g><g><use xlink:href="#d3XDZE90" opacity="1" fill="#568b99" fill-opacity="1"/><g><use xlink:href="#d3XDZE90" opacity="1" fill-opacity="0" stroke="#65656b" stroke-width="1" stroke-opacity="1"/></g></g><g><use xlink:href="#c29F9q72Rr" opacity="0.8" fill="#a3b0b3" fill-opacity="1"/><g><use xlink:href="#c29F9q72Rr" opacity="0.8" fill-opacity="0" stroke="#ffffff" stroke-width="1" stroke-opacity="1"/></g></g><g><use xlink:href="#glMfRSnNK" opacity="0.8" fill="#ebf1f2" fill-opacity="1"/><g><use xlink:href="#glMfRSnNK" opacity="0.8" fill-opacity="0" stroke="#000000" stroke-width="1" stroke-opacity="1"/></g></g><g><use xlink:href="#a2iZjy7HxK" opacity="1" fill="#b9b268" fill-opacity="1"/><g><use xlink:href="#a2iZjy7HxK" opacity="1" fill-opacity="0" stroke="#65656b" stroke-width="1" stroke-opacity="1"/></g></g><g><use xlink:href="#a1GTMzGJou" opacity="0.8" fill="#ebf1f2" fill-opacity="1"/><g><use xlink:href="#a1GTMzGJou" opacity="0.8" fill-opacity="0" stroke="#000000" stroke-width="1" stroke-opacity="1"/></g></g><g><use xlink:href="#a3QSYnLJ6" opacity="0.8" fill="#a3b0b3" fill-opacity="1"/><g><use xlink:href="#a3QSYnLJ6" opacity="0.8" fill-opacity="0" stroke="#ffffff" stroke-width="1" stroke-opacity="1"/></g></g><g><use xlink:href="#e1hxvSdfD7" opacity="1" fill="#568b99" fill-opacity="1"/><g><use xlink:href="#e1hxvSdfD7" opacity="1" fill-opacity="0" stroke="#65656b" stroke-width="1" stroke-opacity="1"/></g></g><g><use xlink:href="#aw8XWsFHd" opacity="0.8" fill="#a3b0b3" fill-opacity="1"/><g><use xlink:href="#aw8XWsFHd" opacity="0.8" fill-opacity="0" stroke="#ffffff" stroke-width="1" stroke-opacity="1"/></g></g><g><use xlink:href="#cwTXmm4vO" opacity="0.8" fill="#ebf1f2" fill-opacity="1"/><g><use xlink:href="#cwTXmm4vO" opacity="0.8" fill-opacity="0" stroke="#000000" stroke-width="1" stroke-opacity="1"/></g></g><g><use xlink:href="#cYrSmA0x" opacity="1" fill="#568b99" fill-opacity="1"/><g><use xlink:href="#cYrSmA0x" opacity="1" fill-opacity="0" stroke="#65656b" stroke-width="1" stroke-opacity="1"/></g></g><g><use xlink:href="#aaSOTDUVA" opacity="0.8" fill="#ebf1f2" fill-opacity="1"/><g><use xlink:href="#aaSOTDUVA" opacity="0.8" fill-opacity="0" stroke="#000000" stroke-width="1" stroke-opacity="1"/></g></g><g><use xlink:href="#b10cLTyO51" opacity="0.8" fill="#a3b0b3" fill-opacity="1"/><g><use xlink:href="#b10cLTyO51" opacity="0.8" fill-opacity="0" stroke="#ffffff" stroke-width="1" stroke-opacity="1"/></g></g><g><use xlink:href="#d24uJ9J4uU" opacity="0.8" fill="#ebf1f2" fill-opacity="1"/><g><use xlink:href="#d24uJ9J4uU" opacity="0.8" fill-opacity="0" stroke="#000000" stroke-width="1" stroke-opacity="1"/></g></g><g><use xlink:href="#cCgf5xZYA" opacity="1" fill="#568b99" fill-opacity="1"/><g><use xlink:href="#cCgf5xZYA" opacity="1" fill-opacity="0" stroke="#65656b" stroke-width="1" stroke-opacity="1"/></g></g><g><use xlink:href="#aZmA3r8i" opacity="1" fill="#568b99" fill-opacity="1"/><g><use xlink:href="#aZmA3r8i" opacity="1" fill-opacity="0" stroke="#65656b" stroke-width="1" stroke-opacity="1"/></g></g><g><use xlink:href="#g9mj7LyWp" opacity="0.8" fill="#a3b0b3" fill-opacity="1"/><g><use xlink:href="#g9mj7LyWp" opacity="0.8" fill-opacity="0" stroke="#ffffff" stroke-width="1" stroke-opacity="1"/></g></g><g><use xlink:href="#b2LsgsQlR" opacity="1" fill="#b9b268" fill-opacity="1"/><g><use xlink:href="#b2LsgsQlR" opacity="1" fill-opacity="0" stroke="#65656b" stroke-width="1" stroke-opacity="1"/></g></g><g><use xlink:href="#c1sFQNrcZ8" opacity="0.8" fill="#a3b0b3" fill-opacity="1"/><g><use xlink:href="#c1sFQNrcZ8" opacity="0.8" fill-opacity="0" stroke="#ffffff" stroke-width="1" stroke-opacity="1"/></g></g><g><use xlink:href="#cJdcWJ3Lj" opacity="0.8" fill="#ebf1f2" fill-opacity="1"/><g><use xlink:href="#cJdcWJ3Lj" opacity="0.8" fill-opacity="0" stroke="#000000" stroke-width="1" stroke-opacity="1"/></g></g><g><use xlink:href="#aF0fE9OvL" opacity="1" fill="#568b99" fill-opacity="1"/><g><use xlink:href="#aF0fE9OvL" opacity="1" fill-opacity="0" stroke="#65656b" stroke-width="1" stroke-opacity="1"/></g></g><g><use xlink:href="#e2iEzdyvBx" opacity="0.8" fill="#ebf1f2" fill-opacity="1"/><g><use xlink:href="#e2iEzdyvBx" opacity="0.8" fill-opacity="0" stroke="#000000" stroke-width="1" stroke-opacity="1"/></g></g><g><use xlink:href="#aTGs5HDG4" opacity="0.8" fill="#a3b0b3" fill-opacity="1"/><g><use xlink:href="#aTGs5HDG4" opacity="0.8" fill-opacity="0" stroke="#ffffff" stroke-width="1" stroke-opacity="1"/></g></g><g><use xlink:href="#aOWhqcpsT" opacity="1" fill="#568b99" fill-opacity="1"/><g><use xlink:href="#aOWhqcpsT" opacity="1" fill-opacity="0" stroke="#65656b" stroke-width="1" stroke-opacity="1"/></g></g><g><use xlink:href="#a1QtkzzVgj" opacity="0.8" fill="#a3b0b3" fill-opacity="1"/><g><use xlink:href="#a1QtkzzVgj" opacity="0.8" fill-opacity="0" stroke="#ffffff" stroke-width="1" stroke-opacity="1"/></g></g><g><use xlink:href="#b2wJBfoirq" opacity="0.8" fill="#ebf1f2" fill-opacity="1"/><g><use xlink:href="#b2wJBfoirq" opacity="0.8" fill-opacity="0" stroke="#000000" stroke-width="1" stroke-opacity="1"/></g></g><g><use xlink:href="#a2kbGxFXY" opacity="1" fill="#568b99" fill-opacity="1"/><g><use xlink:href="#a2kbGxFXY" opacity="1" fill-opacity="0" stroke="#65656b" stroke-width="1" stroke-opacity="1"/></g></g><g><use xlink:href="#a1Kh9TEPhr" opacity="0.8" fill="#ebf1f2" fill-opacity="1"/><g><use xlink:href="#a1Kh9TEPhr" opacity="0.8" fill-opacity="0" stroke="#000000" stroke-width="1" stroke-opacity="1"/></g></g><g><use xlink:href="#j2bs6hJNnS" opacity="0.8" fill="#a3b0b3" fill-opacity="1"/><g><use xlink:href="#j2bs6hJNnS" opacity="0.8" fill-opacity="0" stroke="#ffffff" stroke-width="1" stroke-opacity="1"/></g></g><g><use xlink:href="#aeNj2lDOO" opacity="0.8" fill="#ebf1f2" fill-opacity="1"/><g><use xlink:href="#aeNj2lDOO" opacity="0.8" fill-opacity="0" stroke="#000000" stroke-width="1" stroke-opacity="1"/></g></g><g><use xlink:href="#bNIJGh3Ps" opacity="1" fill="#568b99" fill-opacity="1"/><g><use xlink:href="#bNIJGh3Ps" opacity="1" fill-opacity="0" stroke="#65656b" stroke-width="1" stroke-opacity="1"/></g></g><g><use xlink:href="#b6jRiaQwyt" opacity="0.8" fill="#a3b0b3" fill-opacity="1"/><g><use xlink:href="#b6jRiaQwyt" opacity="0.8" fill-opacity="0" stroke="#ffffff" stroke-width="1" stroke-opacity="1"/></g></g><g><use xlink:href="#c6MjlBZOGO" opacity="1" fill="#b9b268" fill-opacity="1"/><g><use xlink:href="#c6MjlBZOGO" opacity="1" fill-opacity="0" stroke="#65656b" stroke-width="1" stroke-opacity="1"/></g></g><g><use xlink:href="#f15sLt5tzy" opacity="0.8" fill="#a3b0b3" fill-opacity="1"/><g><use xlink:href="#f15sLt5tzy" opacity="0.8" fill-opacity="0" stroke="#ffffff" stroke-width="1" stroke-opacity="1"/></g></g><g><use xlink:href="#a6pYEcJ9n8" opacity="0.8" fill="#ebf1f2" fill-opacity="1"/><g><use xlink:href="#a6pYEcJ9n8" opacity="0.8" fill-opacity="0" stroke="#000000" stroke-width="1" stroke-opacity="1"/></g></g><g><use xlink:href="#k4902N8hnr" opacity="1" fill="#568b99" fill-opacity="1"/><g><use xlink:href="#k4902N8hnr" opacity="1" fill-opacity="0" stroke="#65656b" stroke-width="1" stroke-opacity="1"/></g></g><g><use xlink:href="#a27Ne0k2j" opacity="0.8" fill="#ebf1f2" fill-opacity="1"/><g><use xlink:href="#a27Ne0k2j" opacity="0.8" fill-opacity="0" stroke="#000000" stroke-width="1" stroke-opacity="1"/></g></g><g><use xlink:href="#c4oTrNb1c5" opacity="1" fill="#568b99" fill-opacity="1"/><g><use xlink:href="#c4oTrNb1c5" opacity="1" fill-opacity="0" stroke="#65656b" stroke-width="1" stroke-opacity="1"/></g></g><g><use xlink:href="#b1O95cW5EL" opacity="0.8" fill="#a3b0b3" fill-opacity="1"/><g><use xlink:href="#b1O95cW5EL" opacity="0.8" fill-opacity="0" stroke="#ffffff" stroke-width="1" stroke-opacity="1"/></g></g><g><use xlink:href="#d1s8jHomra" opacity="0.8" fill="#ebf1f2" fill-opacity="1"/><g><use xlink:href="#d1s8jHomra" opacity="0.8" fill-opacity="0" stroke="#000000" stroke-width="1" stroke-opacity="1"/></g></g><g><use xlink:href="#a50BlfLPLj" opacity="1" fill="#568b99" fill-opacity="1"/><g><use xlink:href="#a50BlfLPLj" opacity="1" fill-opacity="0" stroke="#65656b" stroke-width="1" stroke-opacity="1"/></g></g><g><use xlink:href="#aM8Erz5PD" opacity="0.8" fill="#a3b0b3" fill-opacity="1"/><g><use xlink:href="#aM8Erz5PD" opacity="0.8" fill-opacity="0" stroke="#ffffff" stroke-width="1" stroke-opacity="1"/></g></g><g><use xlink:href="#b2mNkkeqsS" opacity="0.8" fill="#ebf1f2" fill-opacity="1"/><g><use xlink:href="#b2mNkkeqsS" opacity="0.8" fill-opacity="0" stroke="#000000" stroke-width="1" stroke-opacity="1"/></g></g><g><use xlink:href="#g2GovWbCAU" opacity="1" fill="#568b99" fill-opacity="1"/><g><use xlink:href="#g2GovWbCAU" opacity="1" fill-opacity="0" stroke="#65656b" stroke-width="1" stroke-opacity="1"/></g></g><g><use xlink:href="#aHj8CzXYs" opacity="1" fill="#568b99" fill-opacity="1"/><g><use xlink:href="#aHj8CzXYs" opacity="1" fill-opacity="0" stroke="#65656b" stroke-width="1" stroke-opacity="1"/></g></g><g><use xlink:href="#b2pZc9CuQv" opacity="0.8" fill="#a3b0b3" fill-opacity="1"/><g><use xlink:href="#b2pZc9CuQv" opacity="0.8" fill-opacity="0" stroke="#ffffff" stroke-width="1" stroke-opacity="1"/></g></g><g><use xlink:href="#c6LXPtoQHS" opacity="1" fill="#568b99" fill-opacity="1"/><g><use xlink:href="#c6LXPtoQHS" opacity="1" fill-opacity="0" stroke="#65656b" stroke-width="1" stroke-opacity="1"/></g></g><g><use xlink:href="#f6gpNHoqE" opacity="0.8" fill="#a3b0b3" fill-opacity="1"/><g><use xlink:href="#f6gpNHoqE" opacity="0.8" fill-opacity="0" stroke="#ffffff" stroke-width="1" stroke-opacity="1"/></g></g><g><use xlink:href="#e5uqgLjniP" opacity="0.8" fill="#ebf1f2" fill-opacity="1"/><g><use xlink:href="#e5uqgLjniP" opacity="0.8" fill-opacity="0" stroke="#000000" stroke-width="1" stroke-opacity="1"/></g></g><g><use xlink:href="#eaF3eq5eS" opacity="1" fill="#568b99" fill-opacity="1"/><g><use xlink:href="#eaF3eq5eS" opacity="1" fill-opacity="0" stroke="#65656b" stroke-width="1" stroke-opacity="1"/></g></g><g><use xlink:href="#ad3tiy8xu" opacity="0.8" fill="#ebf1f2" fill-opacity="1"/><g><use xlink:href="#ad3tiy8xu" opacity="0.8" fill-opacity="0" stroke="#000000" stroke-width="1" stroke-opacity="1"/></g></g><g><use xlink:href="#a13kg19Mbh" opacity="0.8" fill="#a3b0b3" fill-opacity="1"/><g><use xlink:href="#a13kg19Mbh" opacity="0.8" fill-opacity="0" stroke="#ffffff" stroke-width="1" stroke-opacity="1"/></g></g><g><use xlink:href="#a3S6Uhjhet" opacity="1" fill="#568b99" fill-opacity="1"/><g><use xlink:href="#a3S6Uhjhet" opacity="1" fill-opacity="0" stroke="#65656b" stroke-width="1" stroke-opacity="1"/></g></g><g><use xlink:href="#a5xLkHSeZL" opacity="0.8" fill="#a3b0b3" fill-opacity="1"/><g><use xlink:href="#a5xLkHSeZL" opacity="0.8" fill-opacity="0" stroke="#ffffff" stroke-width="1" stroke-opacity="1"/></g></g><g><use xlink:href="#b1ZN2fdEBl" opacity="0.8" fill="#ebf1f2" fill-opacity="1"/><g><use xlink:href="#b1ZN2fdEBl" opacity="0.8" fill-opacity="0" stroke="#000000" stroke-width="1" stroke-opacity="1"/></g></g><g><use xlink:href="#caGYiISad" opacity="1" fill="#568b99" fill-opacity="1"/><g><use xlink:href="#caGYiISad" opacity="1" fill-opacity="0" stroke="#65656b" stroke-width="1" stroke-opacity="1"/></g></g><g><use xlink:href="#c5Ec3WxveJ" opacity="0.8" fill="#ebf1f2" fill-opacity="1"/><g><use xlink:href="#c5Ec3WxveJ" opacity="0.8" fill-opacity="0" stroke="#000000" stroke-width="1" stroke-opacity="1"/></g></g><g><use xlink:href="#m1xamztgEP" opacity="0.8" fill="#a3b0b3" fill-opacity="1"/><g><use xlink:href="#m1xamztgEP" opacity="0.8" fill-opacity="0" stroke="#ffffff" stroke-width="1" stroke-opacity="1"/></g></g><g><use xlink:href="#b2bl0FFpRY" opacity="0.8" fill="#ebf1f2" fill-opacity="1"/><g><use xlink:href="#b2bl0FFpRY" opacity="0.8" fill-opacity="0" stroke="#000000" stroke-width="1" stroke-opacity="1"/></g></g><g><use xlink:href="#f5k7LyM3lk" opacity="1" fill="#568b99" fill-opacity="1"/><g><use xlink:href="#f5k7LyM3lk" opacity="1" fill-opacity="0" stroke="#65656b" stroke-width="1" stroke-opacity="1"/></g></g><g><use xlink:href="#adZUfg6A7" opacity="0.8" fill="#a3b0b3" fill-opacity="1"/><g><use xlink:href="#adZUfg6A7" opacity="0.8" fill-opacity="0" stroke="#ffffff" stroke-width="1" stroke-opacity="1"/></g></g></g></svg>