<?xml version="1.0" encoding="UTF-8" standalone="no"?>
<!-- Created with Inkscape (http://www.inkscape.org/) -->

<svg
   width="100mm"
   height="100mm"
   viewBox="0 0 100 99.999997"
   version="1.1"
   id="svg5"
   inkscape:version="1.1 (c4e8f9ed74, 2021-05-24)"
   sodipodi:docname="bibi_logo.svg"
   xmlns:inkscape="http://www.inkscape.org/namespaces/inkscape"
   xmlns:sodipodi="http://sodipodi.sourceforge.net/DTD/sodipodi-0.dtd"
   xmlns="http://www.w3.org/2000/svg"
   xmlns:svg="http://www.w3.org/2000/svg">
  <sodipodi:namedview
     id="namedview7"
     pagecolor="#ffffff"
     bordercolor="#666666"
     borderopacity="1.0"
     inkscape:pageshadow="2"
     inkscape:pageopacity="0.0"
     inkscape:pagecheckerboard="0"
     inkscape:document-units="mm"
     showgrid="false"
     units="mm"
     showguides="false"
     inkscape:zoom="3.7068125"
     inkscape:cx="188.97638"
     inkscape:cy="189.51593"
     inkscape:window-width="1920"
     inkscape:window-height="1080"
     inkscape:window-x="1920"
     inkscape:window-y="0"
     inkscape:window-maximized="1"
     inkscape:current-layer="layer1">
    <inkscape:grid
       type="xygrid"
       id="grid16" />
  </sodipodi:namedview>
  <defs
     id="defs2" />
  <g
     inkscape:label="Layer 1"
     inkscape:groupmode="layer"
     id="layer1">
    <path
       id="rect854"
       style="fill:#285b6f;stroke:none;stroke-width:1.13386"
       d="M 0 0 L 0 380 L 380 380 L 380 0 L 0 0 z M 233.24414 6.6054688 C 235.45639 6.5743144 237.75499 7.0808787 240.14062 8.125 C 244.00544 9.8164772 246.66145 12.257982 248.10742 15.449219 C 249.60111 18.661338 249.6076 21.961936 248.125 25.349609 C 246.62147 28.784996 244.17133 31.067436 240.77734 32.197266 C 237.43107 33.347973 233.82575 33.07624 229.96094 31.384766 C 226.14384 29.714172 223.51052 27.225516 222.05859 23.917969 C 220.62755 20.562708 220.6314 17.239514 222.07227 13.947266 C 223.55492 10.559592 225.98236 8.3243015 229.35547 7.2421875 C 230.62038 6.8363957 231.91679 6.6241608 233.24414 6.6054688 z M 144.70898 7.1738281 C 146.03634 7.1925207 147.33274 7.4047551 148.59766 7.8105469 C 151.97076 8.8926609 154.39821 11.127951 155.88086 14.515625 C 157.32173 17.807873 157.32557 21.131068 155.89453 24.486328 C 154.44261 27.793876 151.80929 30.282531 147.99219 31.953125 C 144.12738 33.6446 140.52206 33.916332 137.17578 32.765625 C 133.78179 31.635796 131.33166 29.351402 129.82812 25.916016 C 128.34557 22.528342 128.35201 19.229698 129.8457 16.017578 C 131.29168 12.826342 133.94574 10.384837 137.81055 8.6933594 C 140.19623 7.6492381 142.49673 7.1426738 144.70898 7.1738281 z M 213.43555 37.96875 L 236.05273 47.867188 L 221.05078 82.142578 L 255.4668 82.142578 C 281.85862 82.142578 302.73105 88.247905 318.08398 100.45898 C 333.5638 112.67008 341.30469 128.57067 341.30469 148.16211 C 341.30469 164.53303 336.92681 178.75707 328.17188 190.83398 C 319.41689 202.9109 307.30013 211.49852 291.82031 216.59766 L 291.82031 217.4043 C 310.59911 219.68549 325.57056 227.06545 336.73633 239.54492 C 348.02898 251.89021 353.67578 267.99175 353.67578 287.85156 C 353.67578 312.54214 344.47627 332.53656 326.07812 347.83398 C 307.68002 363.13141 284.46124 370.78125 256.41992 370.78125 L 209.08398 370.78125 L 209.08398 371.34766 L 121.5332 371.34766 C 93.4919 371.34766 70.273146 363.69976 51.875 348.40234 C 33.476854 333.10492 24.277344 313.1105 24.277344 288.41992 C 24.277344 268.56011 29.92414 252.45857 41.216797 240.11328 C 52.382567 227.63381 67.35402 220.2519 86.132812 217.9707 L 86.132812 217.16602 C 70.652998 212.06688 58.536228 203.47926 49.78125 191.40234 C 41.026269 179.32543 36.648438 165.10139 36.648438 148.73047 C 36.648437 129.13903 44.389322 113.23844 59.869141 101.02734 C 75.222074 88.816258 96.094499 82.710937 122.48633 82.710938 L 156.90234 82.710938 L 141.90039 48.433594 L 164.51758 38.537109 L 183.60156 82.142578 L 194.10156 82.142578 L 213.43555 37.96875 z M 213.97656 120.58789 L 213.97656 202.71094 L 243.28711 202.71094 C 259.0207 202.71094 271.32712 198.81806 280.20898 191.03516 C 289.21773 183.11807 293.72266 171.98116 293.72266 157.62305 C 293.72266 132.93247 278.11575 120.58789 246.90234 120.58789 L 213.97656 120.58789 z M 131.05078 121.1543 C 99.837385 121.1543 84.230469 133.50083 84.230469 158.19141 C 84.230469 172.54952 88.733442 183.68643 97.742188 191.60352 C 106.62405 199.38641 118.93243 203.27734 134.66602 203.27734 L 163.97656 203.27734 L 163.97656 121.1543 L 131.05078 121.1543 z M 213.97656 241.1543 L 213.97656 332.53711 L 252.61328 332.53711 C 269.48882 332.53711 282.49327 328.44328 291.62891 320.25781 C 300.89142 311.93816 305.52344 300.53331 305.52344 286.04102 C 305.52344 256.11711 285.91998 241.1543 246.71289 241.1543 L 213.97656 241.1543 z M 131.24023 241.72266 C 92.033169 241.72266 72.429688 256.68547 72.429688 286.60938 C 72.429687 301.10163 77.061703 312.50652 86.324219 320.82617 C 95.459851 329.01164 108.4643 333.10547 125.33984 333.10547 L 163.97656 333.10547 L 163.97656 241.72266 L 131.24023 241.72266 z "
       transform="scale(0.26458333)" />
    <g
       aria-label="B"
       transform="matrix(0.97240309,0,0,1.0283801,-0.04404555,2.9842696)"
       id="text2594"
       style="font-size:106.058px;line-height:1.25;letter-spacing:0px;word-spacing:0px;stroke-width:0.418649" />
    <g
       aria-label="i"
       id="text16148"
       style="font-weight:bold;font-size:42.3333px;line-height:1.25;font-family:'Segoe UI';-inkscape-font-specification:'Segoe UI Bold';letter-spacing:0px;word-spacing:0px;fill:#ff00ff;fill-opacity:1;stroke-width:0.264583"
       transform="translate(-1.044633,7.3730512)" />
    <g
       aria-label="i"
       id="text16148-0"
       style="font-weight:bold;font-size:42.3333px;line-height:1.25;font-family:'Segoe UI';-inkscape-font-specification:'Segoe UI Bold';letter-spacing:0px;word-spacing:0px;fill:#ff00ff;fill-opacity:1;stroke-width:0.264583"
       transform="matrix(-1,0,0,1,101.04463,7.5232919)" />
  </g>
</svg>
